<?xml version="1.0" encoding="iso-8859-1"?>
<!-- Generator: Adobe Illustrator 18.1.1, SVG Export Plug-In . SVG Version: 6.00 Build 0)  -->
<svg version="1.1" id="Capa_1" xmlns="http://www.w3.org/2000/svg" xmlns:xlink="http://www.w3.org/1999/xlink" x="0px" y="0px"
	 width="200px" height="200px" viewBox="0 0 80 80" style="enable-background:new 0 0 80 80;" xml:space="preserve" fill="white">
<g id="_x37_7_Essential_Icons_17_">
	<path fill="none" stroke="white" id="Crosshair" d="M78,38h-6.1C70.9,22,58,9.1,42,8.1V2c0-1.1-0.9-2-2-2s-2,0.9-2,2v6.1C22,9.1,9.1,22,8.1,38H2
		c-1.1,0-2,0.9-2,2s0.9,2,2,2h6.1C9.1,58,22,70.9,38,71.9V78c0,1.1,0.9,2,2,2s2-0.9,2-2v-6.1C58,70.9,70.9,58,71.9,42H78
		c1.1,0,2-0.9,2-2S79.1,38,78,38z M62,42h5.9c-1,13.9-12.1,24.9-25.9,25.9V62c0-1.1-0.9-2-2-2s-2,0.9-2,2v5.9
		c-13.8-1-24.9-12.1-25.9-25.9H18c1.1,0,2-0.9,2-2s-0.9-2-2-2h-5.9c1-13.8,12.1-24.9,25.9-25.9V18c0,1.1,0.9,2,2,2s2-0.9,2-2v-5.9
		c13.8,1,24.9,12.1,25.9,25.9H62c-1.1,0-2,0.9-2,2S60.9,42,62,42z"/>
</g>
</svg>
